<svg xmlns="http://www.w3.org/2000/svg" xmlns:xlink="http://www.w3.org/1999/xlink" width="1em" height="1em" preserveAspectRatio="xMidYMid meet" viewBox="0 0 24 24" style="-ms-transform: rotate(360deg); -webkit-transform: rotate(360deg); transform: rotate(360deg);"><g fill="none" stroke="rgba(255, 187, 255, 0.7333333333333333)" stroke-width="1.5"><path d="M2 17.4V2.6a.6.6 0 0 1 .6-.6h14.8a.6.6 0 0 1 .6.6v14.8a.6.6 0 0 1-.6.6H2.6a.6.6 0 0 1-.6-.6Z"/><path stroke-linecap="round" d="M8 22h13.4a.6.6 0 0 0 .6-.6V8m-11 4.5a1.5 1.5 0 1 1-3 0a1.5 1.5 0 0 1 3 0Zm0 0V6.6a.6.6 0 0 1 .6-.6H13"/></g></svg>